<?xml version="1.0" encoding="iso-8859-1"?>
<!-- Uploaded to: SVG Repo, www.svgrepo.com, Generator: SVG Repo Mixer Tools -->
<svg fill="#000000" height="800px" width="800px" version="1.1" id="Layer_1" xmlns="http://www.w3.org/2000/svg" xmlns:xlink="http://www.w3.org/1999/xlink" 
	 viewBox="0 0 512.002 512.002" xml:space="preserve">
<g>
	<g>
		<path d="M512,277.247v-74.579c0-5.658-2.248-11.084-6.248-15.085l-21.333-21.333c-8.331-8.331-21.839-8.331-30.17,0
			c-8.331,8.331-8.331,21.839,0,30.17l15.085,15.085v13.658c-3.735-0.756-7.614-1.161-11.603-1.161H384v-33.83l36.418-36.418
			c13.439-13.439,3.921-36.418-15.085-36.418H192c-5.658,0-11.084,2.248-15.085,6.248L76.497,224.001H21.336
			c-12.659,0-22.534,10.96-21.218,23.551c0.501,4.791,1.726,12.61,3.965,22.494c3.715,16.406,9.039,32.839,16.343,48.368
			c21.993,46.761,57.444,76.254,107.939,76.254h276.971c13.348,0,23.417-12.119,20.972-25.241c-0.013-0.067-0.096-0.621-0.198-1.573
			c-0.696-6.46-0.347-13.79,1.644-20.088c3.558-11.254,11.279-17.098,29.976-17.098c30.189,0,54.272-22.588,54.272-53.333
			C512.002,277.305,512,277.277,512,277.247z M200.837,160.001H353.83l-6.248,6.248c-4.001,4.001-6.248,9.427-6.248,15.085v42.667
			H136.837L200.837,160.001z M457.73,288.001c-37.582,0-61.57,18.156-70.658,46.902c-1.806,5.711-2.927,11.446-3.503,17.098H128.365
			c-31.451,0-53.697-18.507-69.33-51.746c-4.995-10.621-8.925-22.037-11.882-33.587h38.18h277.333h95.063
			c7.196,0,11.581,4.099,11.603,10.618v0.049c0,0.008,0.001,0.015,0.001,0.022C469.324,283.892,464.936,288.001,457.73,288.001z"/>
	</g>
</g>
</svg>