<?xml version="1.0" encoding="iso-8859-1"?>
<!-- Uploaded to: SVG Repo, www.svgrepo.com, Generator: SVG Repo Mixer Tools -->
<svg fill="#000000" height="800px" width="800px" version="1.1" id="Layer_1" xmlns="http://www.w3.org/2000/svg" xmlns:xlink="http://www.w3.org/1999/xlink" 
	 viewBox="0 0 512.002 512.002" xml:space="preserve">
<g>
	<g>
		<path d="M457.73,234.668h-52.397v-21.333c0-35.355-28.645-64-64-64v-21.333c0-11.782-9.551-21.333-21.333-21.333
			s-21.333,9.551-21.333,21.333v21.333H256v-21.333c0-11.782-9.551-21.333-21.333-21.333c-11.782,0-21.333,9.551-21.333,21.333
			v21.333c-35.355,0-64,28.645-64,64v21.333H21.336c-12.659,0-22.534,10.96-21.218,23.551c0.501,4.791,1.726,12.61,3.965,22.494
			c3.715,16.406,9.039,32.839,16.343,48.368c21.993,46.761,57.444,76.254,107.939,76.254h276.971
			c13.348,0,23.417-12.119,20.972-25.241c-0.013-0.067-0.096-0.621-0.198-1.573c-0.696-6.46-0.347-13.79,1.644-20.088
			c3.558-11.254,11.279-17.098,29.976-17.098c30.189,0,54.272-22.588,54.272-53.333S487.919,234.668,457.73,234.668z M192,213.334
			c0-11.791,9.542-21.333,21.333-21.333h128c11.791,0,21.333,9.542,21.333,21.333v21.333H192V213.334z M457.73,298.668
			c-37.582,0-61.57,18.156-70.658,46.902c-1.806,5.711-2.927,11.446-3.503,17.098H128.365c-31.451,0-53.697-18.507-69.33-51.746
			c-4.995-10.621-8.925-22.037-11.882-33.587h123.514H384h73.73c7.214,0,11.605,4.118,11.605,10.667S464.945,298.668,457.73,298.668
			z"/>
	</g>
</g>
</svg>