<?xml version="1.0" encoding="iso-8859-1"?>
<!-- Uploaded to: SVG Repo, www.svgrepo.com, Generator: SVG Repo Mixer Tools -->
<svg fill="#000000" height="800px" width="800px" version="1.1" id="Layer_1" xmlns="http://www.w3.org/2000/svg" xmlns:xlink="http://www.w3.org/1999/xlink" 
	 viewBox="0 0 501.6 501.6" xml:space="preserve">
<g>
	<g>
		<path d="M498.4,330.096c-4.267-6.4-10.667-10.667-18.133-10.667H389.6v-78.933c0-11.733-9.6-21.333-21.333-21.333h-96v-33.067
			c0-11.733-9.6-21.333-21.333-21.333h-68.267V42.096c0-11.733-9.6-21.333-21.333-21.333S140,30.362,140,42.096v122.667H71.733
			c-11.733,0-21.333,9.6-21.333,21.333v133.333H20.533c-7.467,0-13.867,4.267-18.133,10.667c-3.2,6.4-3.2,13.867,0,20.267
			l56.533,105.6c14.933,27.733,43.733,44.8,75.733,44.8H367.2c30.933,0,59.733-17.067,74.667-44.8l56.533-105.6
			C502.667,343.962,502.667,336.496,498.4,330.096z M272.266,260.762H348v58.667h-75.733V260.762z M92,206.362h137.6v113.067H92
			V206.362z M404.533,436.762c-7.467,14.933-22.4,23.467-38.4,23.467H134.666c-16,0-30.933-9.6-38.4-23.467l-40.533-74.667h389.333
			L404.533,436.762z"/>
	</g>
</g>
<g>
	<g>
		<path d="M417.333,25.029C415.2,14.362,405.6,5.829,393.866,6.895C371.466,9.029,348,11.162,325.6,9.029
			c-6.4-1.067-13.867-2.133-21.333-3.2c-23.467-4.267-51.2-9.6-77.867,2.133c-10.667,5.333-14.933,17.067-10.667,27.733
			c5.333,10.667,17.066,14.933,27.733,10.667c14.933-6.4,34.133-3.2,54.4,0c8.533,1.067,16,2.133,24.533,3.2
			c7.467,1.067,16,1.067,23.467,1.067c18.133,0,36.267-2.133,53.333-2.133C409.866,46.362,418.4,36.762,417.333,25.029z"/>
	</g>
</g>
</svg>