<?xml version="1.0" encoding="iso-8859-1"?>
<!-- Uploaded to: SVG Repo, www.svgrepo.com, Generator: SVG Repo Mixer Tools -->
<svg fill="#000000" height="800px" width="800px" version="1.1" id="Layer_1" xmlns="http://www.w3.org/2000/svg" xmlns:xlink="http://www.w3.org/1999/xlink" 
	 viewBox="0 0 512.002 512.002" xml:space="preserve">
<g transform="translate(0 -1)">
	<g>
		<path d="M457.73,321.018h-52.397v-21.333c0-35.355-28.645-64-64-64h-42.667v-36.645l52.11-26.342
			c42.231-21.346,44.73-81.079,4.473-105.964l-66.694-41.198c-0.285-0.176-0.574-0.332-0.862-0.493
			c-0.09-0.05-0.177-0.104-0.268-0.153c-5.311-2.87-11.095-3.202-16.241-1.628c-0.102,0.031-0.204,0.059-0.305,0.091
			c-0.545,0.176-1.083,0.372-1.611,0.59c-0.224,0.092-0.442,0.193-0.662,0.291c-0.321,0.145-0.638,0.298-0.952,0.458
			c-0.228,0.117-0.458,0.228-0.682,0.353c-0.452,0.252-0.893,0.523-1.327,0.806c-0.191,0.125-0.377,0.256-0.563,0.388
			c-0.375,0.262-0.741,0.536-1.1,0.822c-0.094,0.076-0.192,0.147-0.285,0.224c-0.494,0.408-0.966,0.841-1.422,1.293
			c-0.02,0.02-0.039,0.04-0.059,0.06c-2.837,2.827-4.915,6.476-5.77,10.7c-0.016,0.078-0.026,0.158-0.041,0.237
			c-0.096,0.504-0.174,1.015-0.234,1.535c-0.03,0.253-0.057,0.505-0.079,0.761c-0.031,0.382-0.047,0.769-0.059,1.159
			c-0.007,0.221-0.033,0.436-0.033,0.659v192h-42.667c-4.844,0-9.544,1.649-13.327,4.675L99.183,321.018H21.336
			c-12.659,0-22.534,10.96-21.218,23.551c0.501,4.791,1.726,12.61,3.965,22.494c3.715,16.406,9.039,32.839,16.343,48.368
			c21.993,46.761,57.444,76.254,107.939,76.254h276.971c13.348,0,23.417-12.119,20.972-25.241c-0.013-0.067-0.096-0.621-0.198-1.573
			c-0.696-6.46-0.347-13.79,1.644-20.088c3.558-11.254,11.279-17.098,29.976-17.098c30.189,0,54.272-22.588,54.272-53.333
			C512.002,343.606,487.919,321.018,457.73,321.018z M298.677,81.938l34.14,21.089c11.924,7.373,11.174,25.292-1.289,31.592
			l-32.851,16.607V81.938z M220.817,278.351h120.517c11.791,0,21.333,9.542,21.333,21.333v21.333H167.483L220.817,278.351z
			 M457.73,385.018c-37.582,0-61.57,18.156-70.658,46.902c-1.806,5.711-2.927,11.446-3.503,17.098H128.365
			c-31.451,0-53.697-18.507-69.33-51.746c-4.995-10.621-8.925-22.037-11.882-33.587h59.514H384h73.73
			c7.214,0,11.605,4.118,11.605,10.667S464.945,385.018,457.73,385.018z"/>
	</g>
</g>
</svg>